<?xml version="1.0" encoding="UTF-8"?>
<svg width="10px" height="16px" viewBox="0 0 10 16" version="1.1" xmlns="http://www.w3.org/2000/svg" xmlns:xlink="http://www.w3.org/1999/xlink">
    <!-- Generator: Sketch 49.3 (51167) - http://www.bohemiancoding.com/sketch -->
    <title>drop 2</title>
    <desc>Created with Sketch.</desc>
    <defs></defs>
    <g id="Page-1" stroke="none" stroke-width="1" fill="none" fill-rule="evenodd">
        <g id="Water" fill="#D3D3D3" fill-rule="nonzero">
            <g id="drop-2">
                <path d="M4.73714286,0.133874651 C4.71542857,-0.0446248838 4.42759184,-0.0446248838 4.40587755,0.133874651 C3.68489796,6.05735923 0,7.27768938 0,11.394512 C0,13.9378387 2.09240816,16 4.57142857,16 C7.05044898,16 9.14285714,13.9378387 9.14285714,11.394512 C9.14285714,7.27768938 5.45795918,6.05735923 4.73714286,0.133874651 Z M4.04097959,6.68169093 C3.9924898,6.86419046 3.94057143,7.05218997 3.88718367,7.2460228 C3.5595102,8.43318637 3.1882449,9.7785162 3.1882449,11.3355121 C3.1882449,12.17801 2.70040816,12.4778425 2.24391837,12.4778425 C1.72326531,12.4778425 1.29991837,12.0418436 1.29991837,11.5060117 C1.29991837,9.66701649 2.16767347,8.46551962 2.93338776,7.40535572 C3.17322449,7.07352325 3.3995102,6.7598574 3.58367347,6.44719154 C3.66791837,6.30452525 3.89436735,6.31052523 3.99722449,6.45202486 C4.04587755,6.51935802 4.06187755,6.60319114 4.04097959,6.68169093 Z" id="Shape"></path>
            </g>
        </g>
    </g>
</svg>