<?xml version="1.0" encoding="UTF-8"?>
<svg width="19px" height="20px" viewBox="0 0 19 20" version="1.1" xmlns="http://www.w3.org/2000/svg" xmlns:xlink="http://www.w3.org/1999/xlink">
    <!-- Generator: Sketch 52.5 (67469) - http://www.bohemiancoding.com/sketch -->
    <title>search</title>
    <desc>Created with Sketch.</desc>
    <g id="Page-1" stroke="none" stroke-width="1" fill="none" fill-rule="evenodd">
        <g id="search" fill="#C9C9C9" fill-rule="nonzero">
            <path d="M18.7111175,18.0584239 L14.0272924,13.1508009 C15.2315861,11.7085493 15.8914258,9.89390163 15.8914258,8.00477478 C15.8914258,3.59101157 12.3269099,0 7.94571289,0 C3.56451589,0 0,3.59101157 0,8.00477478 C0,12.418538 3.56451589,16.0095496 7.94571289,16.0095496 C9.59047546,16.0095496 11.1578537,15.5097732 12.4979154,14.5610334 L17.2173234,19.505896 C17.4145844,19.7122799 17.6799021,19.826087 17.9642204,19.826087 C18.2333383,19.826087 18.4886375,19.722721 18.6824438,19.5347828 C19.094239,19.1355881 19.1073667,18.4736281 18.7111175,18.0584239 Z M7.94571289,2.08820212 C11.1841091,2.08820212 13.8186311,4.74230701 13.8186311,8.00477478 C13.8186311,11.2672426 11.1841091,13.9213474 7.94571289,13.9213474 C4.70731669,13.9213474 2.07279467,11.2672426 2.07279467,8.00477478 C2.07279467,4.74230701 4.70731669,2.08820212 7.94571289,2.08820212 Z" id="Shape"></path>
        </g>
    </g>
</svg>