<?xml version="1.0" encoding="UTF-8"?>
<svg width="22px" height="20px" viewBox="0 0 22 20" version="1.1" xmlns="http://www.w3.org/2000/svg" xmlns:xlink="http://www.w3.org/1999/xlink">
    <!-- Generator: Sketch 52.5 (67469) - http://www.bohemiancoding.com/sketch -->
    <title>Speaker</title>
    <desc>Created with Sketch.</desc>
    <g id="Page-1" stroke="none" stroke-width="1" fill="none" fill-rule="evenodd">
        <g id="Speaker" fill="#C2C2C2">
            <path d="M11.1596517,0.192723229 L4.83744557,5.63858537 L1.29317852,5.99155792 C0.550798258,6.06719489 0,6.72271533 0,7.47908508 L0,12.52155 C0,13.3031321 0.550798258,13.9586525 1.29317852,14.0090772 L4.83744557,14.3620497 L11.1596517,19.8079119 C11.6865022,20.2617337 12.4528302,19.8583365 12.4528302,19.1523914 L12.4528302,0.823031347 C12.4288824,0.142298579 11.6625544,-0.261098616 11.1596517,0.192723229 Z" id="Path"></path>
            <path d="M16.6653887,4.02897883 C16.4995417,3.80521547 16.1678477,3.75549028 15.9546158,3.95439104 L15.1016883,4.74999409 C14.9121489,4.92403225 14.8884565,5.22238339 15.0543035,5.44614675 C16.0020007,6.6892765 16.570619,8.28048259 16.570619,9.99600165 C16.570619,11.7115207 16.0020007,13.3027268 15.0543035,14.5458566 C14.8884565,14.7447573 14.9121489,15.0679711 15.1016883,15.2420092 L15.9546158,16.0376123 C16.1678477,16.236513 16.4758493,16.2116504 16.6653887,15.9630245 C17.9210875,14.3220932 18.6792453,12.2336352 18.6792453,9.97113906 C18.6792453,7.7086429 17.9447799,5.6699101 16.6653887,4.02897883 Z" id="Path"></path>
            <path d="M19.0980707,1.45203849 C18.9355627,1.22722395 18.6105466,1.22722395 18.4248231,1.4020797 L17.5890675,2.22639968 C17.403344,2.40125544 17.3801286,2.72598755 17.5426366,2.9258227 C19.0284244,4.84923599 19.9106109,7.32219594 19.9106109,9.99499103 C19.9106109,12.6677861 19.0284244,15.1407461 17.5426366,17.0641594 C17.3801286,17.2889739 17.403344,17.5887266 17.5890675,17.7635824 L18.4248231,18.5879024 C18.6105466,18.7877375 18.9355627,18.7627581 19.0980707,18.5379436 C20.9088746,16.21486 22,13.2423122 22,9.97001164 C22,6.6977111 20.9088746,3.77512207 19.0980707,1.45203849 Z" id="Path"></path>
        </g>
    </g>
</svg>